<svg id="Capa_1" enable-background="new 0 0 511.993 511.993" height="512" viewBox="0 0 511.993 511.993" width="512" xmlns="http://www.w3.org/2000/svg"><g><path d="m203.11 262.317c-4.142 0-7.5 3.358-7.5 7.5v12c0 4.142 3.358 7.5 7.5 7.5s7.5-3.358 7.5-7.5v-12c0-4.142-3.358-7.5-7.5-7.5zm132.397 19.5v-12c0-4.142-3.357-7.5-7.5-7.5s-7.5 3.358-7.5 7.5v12c0 4.142 3.357 7.5 7.5 7.5 4.142 0 7.5-3.358 7.5-7.5zm-69.948 14.643c8.479 0 16.54-3.671 22.118-10.073 2.722-3.123 2.395-7.86-.728-10.582-3.123-2.721-7.861-2.396-10.581.727-2.729 3.132-6.669 4.928-10.81 4.928s-8.081-1.796-10.81-4.928c-2.722-3.123-7.459-3.447-10.582-.727-3.123 2.722-3.448 7.459-.727 10.582 5.58 6.402 13.642 10.073 22.12 10.073zm244.006 37.655c-2.579-6.63-8.329-17.554-13.136-26.101 1.848-4.651 3.527-9.308 5.006-13.882 9.141-28.178-9.44-57.148-39.109-61.52.996-15.866 1.627-32.461 1.965-48.736.491-23.637-18.515-43.04-42.173-43.04h-32.351c5.086-25.732-4.004-52.755-26.668-78.77-2.723-3.124-7.46-3.45-10.582-.728-3.123 2.721-3.449 7.458-.729 10.581 14.376 16.502 29.446 41.476 22.607 68.917h-179.837c-1.901-12.883 6.111-25.371 11.505-32.106 10.791-13.471 27.403-24.957 45.576-31.515 32.386-11.686 37.021-34.034 36.901-46.314-.024-2.453 2.555-4.08 4.748-3.009 11.428 5.598 22.903 12.705 33.188 20.554 3.291 2.513 7.999 1.88 10.512-1.412 2.513-3.293 1.881-8-1.412-10.512-11.053-8.436-23.395-16.078-35.689-22.101-12.214-5.983-26.478 3.029-26.347 16.626.18 18.383-14.579 27.58-26.992 32.06-37.232 13.433-70.11 46.38-67.115 77.73h-23.896c-6.885 0-13.5 1.643-19.425 4.725-66.734-18.765-136.112 24.216-136.112 86.762 0 50.336 35.988 76.669 59.804 94.094 22.586 16.526 31.785 24.656 31.785 38.731 0 18.375 14.949 33.325 33.325 33.325 10.348 0 19.729-4.789 25.882-12.365 7.927 14.954 14.598 25.671 28.798 35.059 3.456 2.284 8.108 1.334 10.392-2.121 2.284-3.456 1.335-8.108-2.121-10.393-7.114-4.703-13.171-11.054-17.516-18.369-21.584-36.333-36.212-79.207-40.794-172.002 47.804-24.834 119.107 10.248 159.273 10.248 40.177 0 111.48-35.077 159.275-10.247-.247 5.021-.52 9.918-.825 14.663-13.064 2.573-24.736 11.144-32.301 24.875-18.899 34.306-69.917 101.369-127.73 109.632-24.485 3.499-41.415 26.275-39.038 50.708h-28.688c-4.142 0-7.5 3.358-7.5 7.5s3.358 7.5 7.5 7.5h32.781c6.282 13.519 18.57 23.516 33.948 26.344 8.184 1.505 16.636 2.132 25.225 1.875-1.042 14.669 7.103 28.862 21.374 35.092 18.114 7.905 39.161-.471 47.002-18.439 5.55-12.715 10.932-31.049 14.268-44.644 1.439-.925 2.877-1.873 4.31-2.841 1.965 17.841 17.13 31.765 35.485 31.765 19.687 0 35.702-16.016 35.702-35.702 0-10.946-3.371-29.327-8.511-47.259 8.676 4.058 18.855 4.579 28.122.976 18.35-7.136 27.472-27.867 20.338-46.214zm-366.839 35.29c-1.934 8.141-9.272 14.07-17.813 14.07-10.104 0-18.325-8.22-18.325-18.325 0-23.086-16.737-35.332-37.929-50.838-23.906-17.493-53.659-39.263-53.659-81.988 0-48.76 52.186-84.084 106.814-74.638-5.67 7.509-8.648 16.624-8.449 26.19.068 3.254.147 6.447.235 9.6-32.776-4.636-61.95 14.725-61.95 38.848 0 24.129 17.057 36.61 38.652 52.411 11.922 8.723 25.375 18.582 35.633 31.323 4.534 21.041 10.176 38.208 16.791 53.347zm-21.552-79.634c-7.329-6.388-14.926-11.955-22.014-17.141-23.101-16.903-32.51-25.281-32.51-40.306 0-14.514 22.763-28.367 47.467-23.556 1.062 26.471 3.09 54.601 7.057 81.003zm167.654-76.24c-35.999 0-106.811-33.686-159.953-11.482-.208-5.97-.381-12.121-.513-18.485-.317-15.258 11.97-27.729 27.176-27.729h33.176c.008 0 .017.002.025.002.015 0 .031-.002.046-.002h191.185c.008 0 .016.002.024.002.009 0 .017-.002.025-.002h42.101c15.224 0 27.493 12.486 27.177 27.728-.132 6.314-.307 12.468-.517 18.484-53.14-22.201-123.962 11.484-159.952 11.484zm194.965 152.817c-8.069 3.139-17.333.884-23.049-5.61-3.115-3.54-8.743-3.372-11.617.438-1.541 2.042-2.921 3.83-4.219 5.464-1.571 1.979-2.04 4.618-1.247 7.018 3.916 11.845 6.813 23.565 8.642 33.377-4.076-.387-7.802-1.055-10.374-1.912-3.927-1.31-8.177.814-9.486 4.744-1.31 3.93.814 8.177 4.744 9.487 4.449 1.483 10.691 2.506 17.242 2.886.125 1.633.189 3.1.189 4.372 0 11.415-9.287 20.702-20.702 20.702s-20.701-9.287-20.701-20.702c0-2.653-.439-6.368-1.308-11.043-1.017-5.476-7.466-7.988-11.917-4.599-27.655 21.052-13.574 1.266-27.742 44.537-9.222.221-16.065-.658-17.471-1.142-3.887-1.435-8.199.557-9.631 4.443-1.433 3.887.557 8.199 4.443 9.631 3.224 1.189 9.764 1.93 17.162 2.073-.217.516-.433 1.034-.647 1.523-4.565 10.461-16.787 15.259-27.254 10.692-10.346-4.516-15.137-16.251-10.907-26.716 2.113-5.234-2.112-10.887-7.777-10.265-6.621.731-13.163.879-19.56.452-.203-11.71 1.773-23.497 3.544-28.987 1.272-3.942-.894-8.168-4.835-9.44s-8.169.893-9.44 4.835c-2.266 7.024-4.189 19.281-4.267 31.337-15.274-4.54-25.059-19.973-22.091-36.107 2.467-13.415 12.856-23.675 25.854-25.533 16.057-2.295 32.225-8.431 48.365-18.316 2.381 9.285 6.103 18.591 11.901 23.424 3.176 2.647 7.907 2.228 10.564-.959 2.651-3.182 2.222-7.911-.96-10.563-2.484-2.07-5.817-9.254-8.18-20.923 8.48-6.288 16.943-13.602 25.366-21.947 17.436-17.272 30.814-35.127 39.769-48.533 5.575 7.711 13.159 14.979 22.998 17.904 3.985 1.185 8.15-1.096 9.326-5.052 1.18-3.97-1.082-8.146-5.053-9.326-8.243-2.451-14.613-10.916-18.473-17.493 1.344-2.278 2.389-4.129 3.122-5.459 20.504-37.223 70.362-10.419 59.049 24.451-1.72 5.322-3.731 10.763-5.979 16.174-.893 2.15-.736 4.594.424 6.613 2.592 4.51 5.071 9.029 7.241 13.169-5.559 2.068-10.766 4.787-13.393 7.195-3.045 2.791-3.238 7.499-.459 10.555 2.78 3.056 7.527 3.27 10.595.503 1.001-.903 5.062-3.049 9.786-4.674 4.609 11.456-1.244 23.28-11.587 27.302zm-62.298-5.333c-5.65-2.128-15.455-10.449-17.085-13.436-1.982-3.636-6.536-4.977-10.176-2.992-3.637 1.984-4.976 6.54-2.992 10.176 3.563 6.53 16.628 17.149 24.964 20.29 3.9 1.469 8.211-.522 9.663-4.375 1.46-3.877-.498-8.203-4.374-9.663z"/></g></svg>